<?xml version="1.0" encoding="utf-8"?>
<!-- Generator: Adobe Illustrator 16.0.0, SVG Export Plug-In . SVG Version: 6.00 Build 0)  -->
<!DOCTYPE svg PUBLIC "-//W3C//DTD SVG 1.0//EN" "http://www.w3.org/TR/2001/REC-SVG-20010904/DTD/svg10.dtd">
<svg version="1.0" id="Layer_1" xmlns="http://www.w3.org/2000/svg" xmlns:xlink="http://www.w3.org/1999/xlink" x="0px" y="0px"
	 width="56.69px" height="56.69px" viewBox="0 0 56.69 56.69" enable-background="new 0 0 56.69 56.69" xml:space="preserve">
<path fill="#03979C" d="M50.805,21.647c-1.486-9.05-6.552-15.344-15.095-18.669c-1.548-0.604-3.001-1.057-4.778-1.266
	c-1.765,0-3.53,0-5.293,0c-0.385,0-0.581-0.02-0.753,0c-1.388,0.178-2.554,0.245-3.902,0.703c-4.347,1.491-7.856,4.167-10.715,7.767
	l-1.859,2.536c-1.511,2.794-2.666,5.7-2.761,8.948c-0.015,0.479,0,0.167-0.124,1.464c0,1.777,0,2.467,0,4.255
	c0,0.97,0.18,1.546,0.215,1.786c0.944,6.255,3.871,11.449,8.206,15.945c3.394,3.515,7.602,5.873,11.492,8.693
	c2.11,1.529,3.627,1.603,5.784,0.039c4.094-2.968,8.515-5.472,12.01-9.235C49.242,38.119,52.259,30.557,50.805,21.647z
	 M42.26,32.283c-0.224,0.496-0.505,0.722-1.044,0.677c-0.738-0.056-1.491,0.029-2.213-0.106c-1.015-0.188-1.716,0.138-2.424,0.883
	c-0.662,0.689-0.912,1.374-0.707,2.293c0.107,0.485,0.151,0.993,0.138,1.486c-0.013,0.545,0.501,1.229-0.066,1.603
	c-0.904,0.604-1.925,1.038-2.989,1.299c-0.258,0.062-0.437-0.194-0.604-0.379c-0.502-0.549-1.002-1.103-1.505-1.646
	c-1.569-1.708-3.119-1.665-4.547,0.142c-0.068,0.087-0.131,0.169-0.199,0.254c-1.721,2.106-1.711,2.089-4.204,0.971
	c-0.589-0.27-0.777-0.621-0.743-1.23c0.042-0.821-0.026-1.647,0.059-2.459c0.091-0.865-0.244-1.437-0.808-2.062
	c-0.726-0.806-1.503-0.896-2.465-0.745c-2.956,0.467-2.944,0.439-4.067-2.381c-0.206-0.513-0.174-0.837,0.243-1.206
	c0.714-0.634,1.365-1.343,2.08-1.978c0.46-0.407,0.564-0.872,0.646-1.477c0.196-1.451-0.624-2.203-1.599-2.979
	c-1.88-1.495-1.761-1.477-1.035-3.737c0.54-1.68,1.772-0.948,2.77-1.09c0.866-0.196,1.804,0.36,2.63-0.394
	c0.874-0.804,1.571-1.604,1.18-2.926c-0.117-0.396-0.078-0.848-0.135-1.268c-0.219-1.633-0.224-1.628,1.289-2.287
	c1.972-0.857,1.949-0.834,3.457,0.816c0.639,0.697,1.085,1.608,2.312,1.646c1.315,0.042,2.126-0.46,2.903-1.483
	c1.557-2.064,1.601-1.985,3.959-1.095c0.794,0.305,1.13,0.719,1.025,1.573c-0.076,0.634,0.035,1.297-0.085,1.922
	c-0.214,1.117,0.183,1.873,1.038,2.563c0.537,0.434,1.004,0.667,1.702,0.547c0.863-0.149,1.756-0.158,2.632-0.238
	c0.506-0.044,0.83,0.109,1.089,0.612c1.276,2.499,1.268,2.47-0.708,4.456c-0.612,0.621-1.431,1.041-1.487,2.194
	c-0.065,1.346,0.57,2.08,1.487,2.825C43.465,29.656,43.436,29.676,42.26,32.283z"/>
<path fill="#03979C" d="M28.407,18.457c-3.831-0.038-7.124,3.239-7.157,7.119c-0.033,3.895,3.177,7.183,7.041,7.212
	c3.917,0.024,7.089-3.132,7.116-7.09C35.438,21.747,32.291,18.49,28.407,18.457z M28.369,28.601c-1.657,0-2.961-1.328-2.937-2.997
	c0.021-1.688,1.309-2.934,2.998-2.903c1.587,0.034,2.9,1.393,2.859,2.97C31.244,27.273,29.927,28.599,28.369,28.601z"/>
</svg>
