<?xml version="1.0" encoding="utf-8"?>
<!-- Generator: Adobe Illustrator 16.0.0, SVG Export Plug-In . SVG Version: 6.00 Build 0)  -->
<!DOCTYPE svg PUBLIC "-//W3C//DTD SVG 1.0//EN" "http://www.w3.org/TR/2001/REC-SVG-20010904/DTD/svg10.dtd">
<svg version="1.0" id="Layer_1" xmlns="http://www.w3.org/2000/svg" xmlns:xlink="http://www.w3.org/1999/xlink" x="0px" y="0px"
	 width="283.465px" height="283.464px" viewBox="171.367 -729.109 283.465 283.464"
	 enable-background="new 171.367 -729.109 283.465 283.464" xml:space="preserve">
<g>
	<g>
		<path fill="#F39C12" d="M368.862-546.86v-3.122c0.422,0,0.843-0.258,0.843-0.75c0-0.463-0.378-0.84-0.843-0.84v-3.121
			c2.185,0,3.965,1.778,3.965,3.961C372.827-548.562,371.085-546.86,368.862-546.86z"/>
		<path fill="#F39C12" d="M368.862-556.294v-3.118c0.422,0,0.843-0.256,0.843-0.75c0-0.466-0.378-0.844-0.843-0.844v-3.119
			c2.185,0,3.965,1.778,3.965,3.963C372.827-557.99,371.085-556.294,368.862-556.294z"/>
		<path fill="#F39C12" d="M368.862-565.719v-3.12c0.422,0,0.843-0.258,0.843-0.751c0-0.464-0.378-0.84-0.843-0.84v-3.121
			c2.185,0,3.965,1.777,3.965,3.961C372.827-567.417,371.085-565.719,368.862-565.719z"/>
		<g>
			<g>
				<g>
					<rect x="277.274" y="-642.428" fill="#F39C12" width="22.781" height="21.212"/>
				</g>
				<g>
					<path fill="#F39C12" d="M301.616-619.655h-25.902v-24.333h25.902V-619.655z M278.835-622.777h19.661v-18.09h-19.661V-622.777z"
						/>
				</g>
				<g>
					<g>
						<defs>
							<rect id="SVGID_1_" x="277.271" y="-642.431" width="22.784" height="21.215"/>
						</defs>
						<use xlink:href="#SVGID_1_"  overflow="visible" fill="#F39C12"/>
						<clipPath id="SVGID_2_">
							<use xlink:href="#SVGID_1_"  overflow="visible"/>
						</clipPath>
					</g>
				</g>
			</g>
			<g>
				<g>
					<g>
						<defs>
							<rect id="SVGID_3_" x="277.271" y="-642.431" width="22.784" height="21.215"/>
						</defs>
						<use xlink:href="#SVGID_3_"  overflow="visible" fill="#F39C12"/>
						<clipPath id="SVGID_4_">
							<use xlink:href="#SVGID_3_"  overflow="visible"/>
						</clipPath>
					</g>
					<g>
						<defs>
							<rect id="SVGID_5_" x="277.271" y="-642.431" width="22.784" height="21.215"/>
						</defs>
						<defs>
							<rect id="SVGID_6_" x="277.274" y="-642.428" width="22.781" height="21.212"/>
						</defs>
						<use xlink:href="#SVGID_5_"  overflow="visible" fill="#F39C12"/>
						<use xlink:href="#SVGID_6_"  overflow="visible" fill="#F39C12"/>
						<clipPath id="SVGID_7_">
							<use xlink:href="#SVGID_5_"  overflow="visible"/>
						</clipPath>
						<clipPath id="SVGID_8_" clip-path="url(#SVGID_7_)">
							<use xlink:href="#SVGID_6_"  overflow="visible"/>
						</clipPath>
						<g clip-path="url(#SVGID_8_)">
							<path fill="#F39C12" d="M324.651-618.268l-14.769-14.772l-1.698,1.691l12.42,12.416l-0.665,0.667l-12.419-12.415l-1.691,1.69
								l10.062,10.059l-0.665,0.667l-10.064-10.06l-1.688,1.691l7.701,7.701l-0.666,0.667l-7.703-7.701l-1.693,1.692l5.346,5.343
								l-0.671,0.668l-5.34-5.345l-1.691,1.685l2.991,2.988l-0.668,0.667l-2.986-2.989l-1.691,1.691l0.631,0.63l-0.668,0.667
								l-0.63-0.631l-0.63,0.631l-0.667-0.667l0.63-0.63l-1.691-1.691l-1.69,1.69l0.629,0.631l-0.668,0.667l-0.63-0.631l-0.63,0.631
								l-0.667-0.667l0.631-0.631l-1.689-1.69l-1.693,1.691l0.631,0.63l-0.668,0.667l-0.63-0.631l-0.628,0.631l-0.668-0.667
								l0.631-0.63l-1.69-1.69l-1.69,1.69l0.63,0.63l-0.668,0.667l-0.63-0.629l-0.627,0.629l-0.667-0.667l0.628-0.63l-1.691-1.691
								l-2.988,2.989l-0.668-0.667l2.989-2.988l-1.69-1.69l-5.343,5.344l-0.668-0.667l5.343-5.343l-1.69-1.693l-7.702,7.702
								l-0.668-0.668l7.702-7.701l-1.69-1.691l-10.056,10.06l-0.668-0.668l10.057-10.059l-1.691-1.69l-12.415,12.416l-0.668-0.668
								l12.416-12.415l-1.692-1.69l-14.762,14.776l-0.668-0.667l14.771-14.773l-11-10.999l0.668-0.668l10.999,11l1.692-1.69
								l-8.644-8.643l0.668-0.668l8.642,8.644l1.689-1.69l-6.286-6.286l0.668-0.668l6.286,6.287l1.69-1.69l-3.93-3.928l0.668-0.668
								l3.93,3.93l1.69-1.69l-1.572-1.57l0.667-0.668l1.571,1.573l1.571-1.573l0.667,0.668l-1.572,1.57l1.691,1.691l1.69-1.69
								l-1.574-1.573l0.668-0.668l1.573,1.575l1.573-1.575l0.667,0.668l-1.574,1.573l1.69,1.69l1.691-1.691l-1.573-1.57l0.668-0.668
								l1.57,1.573l1.572-1.573l0.668,0.668l-1.573,1.57l1.693,1.691l1.69-1.69l-1.575-1.573l0.668-0.668l1.574,1.575l1.572-1.575
								l0.667,0.668l-1.575,1.573l1.69,1.69l1.691-1.691l-1.572-1.57l0.668-0.668l1.57,1.573l1.571-1.573l0.668,0.668l-1.572,1.57
								l1.691,1.691l1.689-1.69l-1.572-1.573l0.668-0.668l1.575,1.575l1.573-1.575l0.664,0.668l-1.573,1.573l1.689,1.69l3.931-3.931
								l0.664,0.668l-3.928,3.93l1.692,1.689l6.292-6.288l0.664,0.668l-6.292,6.286l1.694,1.69l8.646-8.644l0.664,0.668l-8.646,8.641
								l1.698,1.693l11-11.002l0.665,0.668l-11.002,11l14.77,14.771L324.651-618.268z M279.903-621.923l1.691,1.691l1.693-1.689
								l-1.693-1.691L279.903-621.923z M294.043-621.923l1.691,1.691l1.694-1.691l-1.694-1.691L294.043-621.923z M284.617-621.922
								l1.69,1.689l1.692-1.691l-1.689-1.69L284.617-621.922z M289.33-621.923l1.69,1.69l1.691-1.69l-1.69-1.69L289.33-621.923z
								 M282.259-624.278l1.692,1.69l1.69-1.69l-1.69-1.693L282.259-624.278z M277.546-624.278l1.69,1.69l1.69-1.691l-1.69-1.691
								L277.546-624.278z M296.401-624.28l1.691,1.691l1.689-1.69l-1.689-1.693L296.401-624.28z M286.974-624.278l1.691,1.69
								l1.69-1.691l-1.69-1.691L286.974-624.278z M291.688-624.28l1.69,1.691l1.691-1.691l-1.69-1.691L291.688-624.28z
								 M275.19-626.636l1.691,1.69l1.69-1.69l-1.691-1.691L275.19-626.636z M284.617-626.636l1.691,1.69l1.69-1.69l-1.693-1.691
								L284.617-626.636z M298.757-626.637l1.694,1.691l1.69-1.69l-1.693-1.691L298.757-626.637z M279.904-626.636l1.69,1.69
								l1.691-1.69l-1.691-1.691L279.904-626.636z M289.331-626.636l1.69,1.69l1.69-1.691l-1.69-1.69L289.331-626.636z
								 M294.045-626.637l1.69,1.691l1.69-1.69l-1.69-1.689L294.045-626.637z M277.546-628.994l1.69,1.691l1.691-1.691l-1.691-1.69
								L277.546-628.994z M286.974-628.994l1.691,1.691l1.691-1.691l-1.691-1.69L286.974-628.994z M301.115-628.995l1.693,1.692
								l1.691-1.69l-1.695-1.691L301.115-628.995z M282.259-628.994l1.692,1.689l1.69-1.689l-1.69-1.69L282.259-628.994z
								 M272.831-628.994l1.692,1.689l1.69-1.689l-1.69-1.69L272.831-628.994z M291.688-628.994l1.691,1.689l1.688-1.689l-1.689-1.69
								L291.688-628.994z M296.401-628.994l1.691,1.689l1.689-1.692l-1.689-1.69L296.401-628.994z M294.045-631.35l1.69,1.691
								l1.694-1.693l-1.694-1.69L294.045-631.35z M303.471-631.352l1.693,1.693l1.691-1.693l-1.691-1.691L303.471-631.352z
								 M279.904-631.352l1.69,1.693l1.691-1.693l-1.691-1.69L279.904-631.352z M270.476-631.352l1.689,1.693l1.69-1.693l-1.69-1.69
								L270.476-631.352z M289.331-631.352l1.69,1.693l1.69-1.691l-1.69-1.691L289.331-631.352z M284.617-631.352l1.69,1.693
								l1.692-1.693l-1.692-1.69L284.617-631.352z M275.19-631.352l1.69,1.693l1.691-1.693l-1.691-1.69L275.19-631.352z
								 M298.757-631.352l1.691,1.692l1.693-1.692l-1.693-1.69L298.757-631.352z M291.688-633.707l1.69,1.69l1.691-1.691l-1.69-1.69
								L291.688-633.707z M305.828-633.708l1.694,1.691l1.691-1.69l-1.691-1.691L305.828-633.708z M282.259-633.707l1.692,1.69
								l1.69-1.691l-1.69-1.69L282.259-633.707z M272.831-633.707l1.692,1.69l1.69-1.691l-1.69-1.69L272.831-633.707z
								 M268.118-633.708l1.69,1.691l1.691-1.691l-1.691-1.69L268.118-633.708z M286.974-633.708l1.691,1.691l1.69-1.69l-1.69-1.69
								L286.974-633.708z M277.546-633.708l1.69,1.691l1.691-1.691l-1.691-1.69L277.546-633.708z M296.402-633.708l1.69,1.691
								l1.689-1.69l-1.689-1.691L296.402-633.708z M301.115-633.707l1.689,1.688l1.692-1.69l-1.692-1.69L301.115-633.707z
								 M289.33-636.065l1.691,1.691l1.69-1.691l-1.69-1.691L289.33-636.065z M298.757-636.065l1.691,1.69l1.693-1.69l-1.69-1.691
								L298.757-636.065z M270.474-636.065l1.691,1.69l1.69-1.69l-1.69-1.691L270.474-636.065z M279.904-636.065l1.69,1.69
								l1.691-1.69l-1.691-1.691L279.904-636.065z M294.045-636.065l1.69,1.69l1.69-1.69l-1.69-1.69L294.045-636.065z
								 M284.617-636.065l1.69,1.69l1.69-1.69l-1.69-1.69L284.617-636.065z M275.19-636.065l1.69,1.69l1.691-1.69l-1.69-1.691
								L275.19-636.065z M303.474-636.065l1.688,1.69l1.688-1.69l-1.688-1.69L303.474-636.065z M286.972-638.42l1.69,1.69
								l1.691-1.692l-1.689-1.691L286.972-638.42z M296.401-638.42l1.691,1.69l1.689-1.692l-1.689-1.691L296.401-638.42z
								 M291.688-638.422l1.691,1.69l1.69-1.688l-1.691-1.693L291.688-638.422z M272.831-638.422l1.692,1.69l1.69-1.69l-1.69-1.692
								L272.831-638.422z M282.259-638.422l1.692,1.69l1.69-1.688l-1.691-1.693L282.259-638.422z M301.115-638.422l1.689,1.69
								l1.692-1.69l-1.692-1.691L301.115-638.422z M277.546-638.422l1.69,1.69l1.69-1.69l-1.69-1.691L277.546-638.422z
								 M284.615-640.777l1.691,1.689l1.692-1.691l-1.692-1.691L284.615-640.777z M294.043-640.779l1.691,1.691l1.694-1.691
								l-1.694-1.691L294.043-640.779z M275.19-640.779l1.691,1.691l1.69-1.691l-1.691-1.691L275.19-640.779z M298.76-640.777
								l1.691,1.689l1.69-1.689l-1.69-1.69L298.76-640.777z M289.331-640.779l1.69,1.69l1.688-1.688l-1.688-1.69L289.331-640.779z
								 M279.904-640.779l1.69,1.69l1.688-1.688l-1.688-1.69L279.904-640.779z"/>
						</g>
					</g>
				</g>
			</g>
			<path fill="#F39C12" d="M372.093-542.146H257.336c-2.223,0-3.963-1.7-3.963-3.875c0-2.183,1.778-3.962,3.963-3.962h111.526v3.12
				H257.336c-0.464,0-0.843,0.378-0.843,0.842c0,0.494,0.423,0.755,0.843,0.755h114.757V-542.146z"/>
			<path fill="#F39C12" d="M368.862-551.573H257.336c-2.223,0-3.963-1.701-3.963-3.874c0-2.185,1.778-3.964,3.963-3.964h111.526
				v3.119H257.336c-0.464,0-0.843,0.377-0.843,0.846c0,0.492,0.423,0.754,0.843,0.754h111.526V-551.573z"/>
			<path fill="#F39C12" d="M368.862-561.001H257.336c-2.223,0-3.963-1.701-3.963-3.874c0-2.185,1.778-3.963,3.963-3.963h111.526v3.12
				H257.336c-0.464,0-0.843,0.379-0.843,0.843c0,0.493,0.423,0.753,0.843,0.753h111.526V-561.001z"/>
			<path fill="#F39C12" d="M368.862-570.429h-76.907c-2.224,0-3.962-1.7-3.962-3.872v-14.498h3.121v14.499
				c0,0.494,0.423,0.75,0.843,0.75h76.907L368.862-570.429L368.862-570.429z"/>
			<g>
				<path fill="#F39C12" d="M294.223-589.905h-10.217l-8.361-27.827h25.966L294.223-589.905z M286.329-593.024h5.494l5.732-21.587
					h-17.713L286.329-593.024z"/>
			</g>
		</g>
		<g>
			<path fill="#F39C12" d="M322.65-629.195l8.864-10.182c0.659-0.732,0.586-1.832-0.146-2.491c-0.732-0.66-1.832-0.586-2.491,0.146
				l-9.89,11.354c-0.585,0.659-0.585,1.685,0,2.344l9.89,11.354c0.366,0.367,0.806,0.586,1.319,0.586c0.439,0,0.879-0.146,1.172-0.439
				c0.366-0.293,0.586-0.733,0.586-1.245c0-0.44-0.146-0.952-0.439-1.319L322.65-629.195z"/>
			<path fill="#F39C12" d="M349.975-641.721c-0.294-0.366-0.733-0.585-1.246-0.585c-0.439,0-0.952,0.146-1.319,0.439
				c-0.732,0.659-0.805,1.758-0.146,2.491l8.938,10.182l-8.864,10.183c-0.293,0.366-0.439,0.806-0.439,1.318
				c0,0.439,0.219,0.879,0.586,1.246c0.293,0.293,0.732,0.439,1.172,0.439c0.513,0,1.025-0.22,1.319-0.586l9.889-11.355
				c0.586-0.659,0.586-1.685,0-2.344L349.975-641.721z"/>
			<path fill="#F39C12" d="M342.575-645.092c-0.953-0.219-1.905,0.44-2.125,1.393l-5.64,28.276c-0.22,0.952,0.439,1.904,1.392,2.124
				c0.146,0,0.22,0,0.366,0c0.879,0,1.611-0.586,1.758-1.465l5.641-28.276C344.187-643.992,343.601-644.871,342.575-645.092z"/>
		</g>
	</g>
	<circle fill="none" stroke="#20979D" stroke-width="7" stroke-miterlimit="10" cx="313.1" cy="-593.067" r="98.415"/>
</g>
</svg>
