<?xml version="1.0" encoding="utf-8"?>
<!-- Generator: Adobe Illustrator 16.0.0, SVG Export Plug-In . SVG Version: 6.00 Build 0)  -->
<!DOCTYPE svg PUBLIC "-//W3C//DTD SVG 1.0//EN" "http://www.w3.org/TR/2001/REC-SVG-20010904/DTD/svg10.dtd">
<svg version="1.0" id="Layer_1" xmlns="http://www.w3.org/2000/svg" xmlns:xlink="http://www.w3.org/1999/xlink" x="0px" y="0px"
	 width="283.465px" height="283.464px" viewBox="171.367 -403.972 283.465 283.464"
	 enable-background="new 171.367 -403.972 283.465 283.464" xml:space="preserve">
<g>
	<g transform="translate(963.000000, 587.000000)">
		<path fill="#F39C12" d="M-616.079-892.074c0.218,1.212-0.589,2.372-1.803,2.59c-1.211,0.219-2.371-0.588-2.589-1.8
			c-0.216-1.214,0.588-2.374,1.802-2.593C-617.457-894.093-616.298-893.288-616.079-892.074"/>
		<path fill="#F39C12" d="M-604.126-894.475c0.218,1.211-0.589,2.371-1.8,2.59c-1.213,0.219-2.371-0.589-2.59-1.8
			c-0.218-1.214,0.589-2.371,1.8-2.59C-605.503-896.493-604.344-895.686-604.126-894.475"/>
		<path fill="#F39C12" d="M-652.412-862.317c-2.46,0-4.461,2.001-4.461,4.461c0,2.46,2.001,4.461,4.461,4.461
			c2.461,0,4.461-2.001,4.461-4.461C-647.951-860.316-649.951-862.317-652.412-862.317 M-652.412-848.933
			c-4.92,0-8.922-4.002-8.922-8.923c0-4.921,4.002-8.923,8.922-8.923c4.921,0,8.923,4.001,8.923,8.923
			C-643.49-852.935-647.491-848.933-652.412-848.933"/>
		<path fill="#F39C12" d="M-652.412-786.474c-1.234,0-2.231-1-2.231-2.231v-62.459c0-1.23,0.997-2.23,2.231-2.23
			c1.233,0,2.23,1,2.23,2.23v62.459C-650.182-787.474-651.179-786.474-652.412-786.474"/>
		<path fill="#F39C12" d="M-647.951-786.474h-8.923c-1.233,0-2.23-1-2.23-2.231c0-1.23,0.997-2.23,2.23-2.23h8.923
			c1.234,0,2.23,1,2.23,2.23C-645.72-787.474-646.717-786.474-647.951-786.474"/>
		<path fill="#F39C12" d="M-690.334-786.474h-8.922c-1.234,0-2.231-1-2.231-2.231c0-1.23,0.997-2.23,2.231-2.23h8.922
			c1.233,0,2.23,1,2.23,2.23C-688.103-787.474-689.1-786.474-690.334-786.474"/>
		<path fill="#F39C12" d="M-610.027-786.474c-0.768,0-1.515-0.395-1.927-1.107l-37.652-64.42c-0.62-1.062-0.263-2.427,0.799-3.049
			c1.07-0.622,2.434-0.261,3.051,0.802l37.652,64.419c0.622,1.061,0.264,2.427-0.799,3.049
			C-609.258-786.573-609.646-786.474-610.027-786.474"/>
		<path fill="#F39C12" d="M-694.797-786.474c-0.381,0-0.77-0.099-1.125-0.306c-1.062-0.623-1.421-1.988-0.799-3.049l37.652-64.419
			c0.62-1.062,1.983-1.424,3.051-0.802c1.062,0.622,1.419,1.988,0.799,3.049l-37.651,64.42
			C-693.282-786.868-694.03-786.474-694.797-786.474"/>
		<path fill="#F39C12" d="M-605.568-786.474h-8.923c-1.233,0-2.23-1-2.23-2.231c0-1.23,0.997-2.23,2.23-2.23h8.923
			c1.234,0,2.231,1,2.231,2.23C-603.337-787.474-604.334-786.474-605.568-786.474"/>
		<path fill="#F39C12" d="M-684.21-870.797c-0.453,0-0.897-0.139-1.274-0.399c-0.486-0.339-0.816-0.854-0.921-1.436l-2.37-13.175
			c-0.219-1.212,0.589-2.371,1.802-2.59l57.083-10.261c1.207-0.218,2.371,0.587,2.59,1.8c0.217,1.213-0.589,2.374-1.803,2.592
			l-54.885,9.866l1.579,8.782l54.886-9.866c1.207-0.221,2.373,0.589,2.59,1.8c0.219,1.214-0.587,2.374-1.8,2.59l-57.083,10.261
			C-683.947-870.808-684.079-870.797-684.21-870.797"/>
		<path fill="#F39C12" d="M-715.514-867.435c-1.059,0-1.999-0.757-2.192-1.836l-1.579-8.783c-0.104-0.582,0.024-1.182,0.363-1.668
			c0.337-0.486,0.854-0.819,1.437-0.921l30.908-5.557c1.209-0.218,2.372,0.589,2.59,1.802c0.216,1.211-0.589,2.371-1.803,2.59
			l-28.711,5.16l0.792,4.392l28.711-5.162c1.207-0.219,2.371,0.589,2.59,1.802c0.217,1.211-0.589,2.372-1.802,2.59l-30.906,5.555
			C-715.25-867.447-715.382-867.435-715.514-867.435"/>
		<path fill="#F39C12" d="M-627.302-896.869l2.37,13.172l27.276-5.084l-2.367-13.172L-627.302-896.869z M-626.734-878.864
			c-0.448,0-0.894-0.136-1.267-0.395c-0.488-0.337-0.825-0.857-0.928-1.441l-3.159-17.564c-0.214-1.207,0.583-2.362,1.787-2.586
			l31.667-5.9c0.587-0.111,1.189,0.018,1.678,0.357c0.486,0.337,0.823,0.856,0.928,1.441l3.156,17.562
			c0.214,1.209-0.582,2.365-1.787,2.588l-31.667,5.9C-626.461-878.875-626.599-878.864-626.734-878.864L-626.734-878.864z"/>
		<path fill="#F39C12" d="M-595.07-884.764c-1.059,0-1.999-0.756-2.193-1.835c-0.218-1.213,0.587-2.374,1.8-2.59
			c1.76-0.316,3.291-1.297,4.312-2.766c1.02-1.468,1.408-3.246,1.091-5.006c-0.654-3.631-4.149-6.054-7.77-5.4
			c-1.207,0.214-2.374-0.589-2.589-1.8c-0.219-1.213,0.586-2.374,1.8-2.592c6.065-1.084,11.86,2.952,12.952,9.003
			c0.526,2.933-0.121,5.896-1.823,8.34c-1.698,2.447-4.252,4.084-7.183,4.611C-594.807-884.775-594.939-884.764-595.07-884.764"/>
		<path fill="#F39C12" d="M-657.867-875.532c-1.06,0-1.999-0.756-2.193-1.836l-2.368-13.174c-0.219-1.212,0.588-2.372,1.802-2.59
			c1.207-0.215,2.371,0.588,2.59,1.802l2.367,13.172c0.219,1.214-0.586,2.374-1.8,2.59
			C-657.604-875.544-657.735-875.532-657.867-875.532"/>
		<path fill="#F39C12" d="M-644.694-877.9c-1.06,0-1.999-0.756-2.193-1.836l-2.369-13.174c-0.219-1.211,0.589-2.372,1.802-2.589
			c1.207-0.214,2.371,0.589,2.59,1.8l2.367,13.174c0.219,1.213-0.587,2.374-1.8,2.59C-644.431-877.912-644.562-877.9-644.694-877.9"
			/>
		<path fill="#F39C12" d="M-652.409-862.312L-652.409-862.312c-1.234,0-2.231-0.999-2.231-2.23l0.002-14.196
			c0-1.231,0.999-2.231,2.231-2.231c1.233,0,2.23,1,2.23,2.231l-0.002,14.196C-650.179-863.311-651.179-862.312-652.409-862.312"/>
	</g>
	<circle fill="none" stroke="#20979D" stroke-width="7" stroke-miterlimit="10" cx="316.305" cy="-262.24" r="98.415"/>
</g>
</svg>
